<svg id="Layer_1_1_" enable-background="new 0 0 64 64" height="512" viewBox="0 0 64 64" width="512" xmlns="http://www.w3.org/2000/svg"><path d="m57 9h-50c2.209 0 4 4.029 4 9s-1.791 9-4 9h50c2.209 0 4-4.029 4-9s-1.791-9-4-9z" fill="#5e6a45"/><path d="m17 9v6.5c0 3.59 2.6 6.5 5.806 6.5h18.387c3.207 0 5.807-2.91 5.807-6.5v-6.5z" fill="#515c3c"/><path d="m13 27h38v32h-38z" fill="#214369"/><path d="m18 28h28v15h-28z" fill="#1e3e61"/><path d="m13 27h38v2h-38z" fill="#1e3e61"/><ellipse cx="7" cy="18" fill="#515c3c" rx="4" ry="9"/><path d="m59.121 10.38c.549 1.54.879 3.492.879 5.62 0 4.971-1.791 9-4 9h-46.488c-.687 1.249-1.56 2-2.512 2h50c2.209 0 4-4.029 4-9 0-3.215-.752-6.028-1.879-7.62z" fill="#515c3c"/><path d="m53 9c0-3.314-2.686-6-6-6h-1v6z" fill="#214369"/><path d="m13 27-3.2 2.4c-3.022 2.266-4.8 13.823-4.8 17.6h8z" fill="#1e3e61"/><path d="m13 47h-8v10c0 2.209 1.791 4 4 4h4v-5z" fill="#c5b6a3"/><path d="m17 46h30v10h-30z" fill="#f98600"/><path d="m59 47c0-3.777-1.778-15.334-4.8-17.6l-3.2-2.4v20z" fill="#1e3e61"/><path d="m51 56v5h4c2.209 0 4-1.791 4-4v-10h-8z" fill="#c5b6a3"/><path d="m18 3v10c0 3.357 2.069 6.226 5 7.413v-7.413h4v8h10v-8h4v7.413c2.931-1.187 5-4.057 5-7.413v-10z" fill="#f98600"/><path d="m18 3h-1c-3.314 0-6 2.686-6 6h7z" fill="#214369"/><path d="m22 13h6v29h-6z" fill="#c5b6a3"/><path d="m36 13h6v29h-6z" fill="#c5b6a3"/><path d="m58.305 53.775c-1.421 2.604-4.151 4.225-7.118 4.225h-38.416c-2.945 0-5.658-1.596-7.088-4.17l-.683-1.23v4.4c0 2.209 1.791 4 4 4h4 38 4c2.209 0 4-1.791 4-4v-4.5z" fill="#b5a796"/><path d="m21 12h8v1h-8z" fill="#de7700"/><path d="m35 12h8v1h-8z" fill="#de7700"/><path d="m30 39h-10c-.553 0-1-.448-1-1v-6c0-.552.447-1 1-1h10c.553 0 1 .448 1 1v6c0 .552-.447 1-1 1zm-9-2h8v-4h-8z" fill="#2e2e2e"/><path d="m44 39h-10c-.553 0-1-.448-1-1v-6c0-.552.447-1 1-1h10c.553 0 1 .448 1 1v6c0 .552-.447 1-1 1zm-9-2h8v-4h-8z" fill="#2e2e2e"/><path d="m6.052 23.316c-.043-.128-1.052-3.178-1.052-5.316s1.009-5.188 1.052-5.316l1.897.632c-.01.029-.949 2.872-.949 4.684 0 1.817.939 4.655.948 4.684z" fill="#4a5437"/><path d="m41 46h2v4h-2z" fill="#2e2e2e"/></svg>