<?xml version="1.0" encoding="iso-8859-1"?>
<!-- Generator: Adobe Illustrator 19.0.0, SVG Export Plug-In . SVG Version: 6.00 Build 0)  -->
<svg version="1.1" id="Capa_1" xmlns="http://www.w3.org/2000/svg" xmlns:xlink="http://www.w3.org/1999/xlink" x="0px" y="0px"
	 viewBox="0 0 512 512" style="enable-background:new 0 0 512 512;" xml:space="preserve">
<g>
	<path style="fill:#CCCCCC;" d="M256.001,106.28c-4.263,0-7.719-3.456-7.719-7.719V77.978c0-4.263,3.456-7.719,7.719-7.719
		s7.719,3.456,7.719,7.719v20.583C263.72,102.824,260.264,106.28,256.001,106.28z"/>
	<path style="fill:#CCCCCC;" d="M346.566,169.349c-4.263,0-7.719-3.456-7.719-7.719V48.298c0-18.119-14.741-32.861-32.861-32.861
		h-99.971c-18.119,0-32.861,14.741-32.861,32.861v108.238c0,4.263-3.456,7.719-7.719,7.719c-4.263,0-7.719-3.456-7.719-7.719V48.298
		C157.718,21.667,179.384,0,206.015,0h99.971c26.631,0,48.298,21.667,48.298,48.298V161.63
		C354.284,165.893,350.829,169.349,346.566,169.349z"/>
</g>
<polyline style="fill:#FEC755;" points="332.981,374.744 332.981,196.33 179.021,196.33 179.021,374.744 "/>
<circle style="fill:#FFDC9F;" cx="256" cy="285.536" r="52.795"/>
<g>
	<path style="fill:#3B4C5B;" d="M215.206,382.462c-4.263,0-7.719-3.456-7.719-7.719V196.33c0-4.263,3.456-7.719,7.719-7.719
		c4.263,0,7.719,3.456,7.719,7.719v178.414C222.924,379.007,219.468,382.462,215.206,382.462z"/>
	<path style="fill:#3B4C5B;" d="M296.795,382.462c-4.263,0-7.719-3.456-7.719-7.719V196.33c0-4.263,3.456-7.719,7.719-7.719
		s7.719,3.456,7.719,7.719v178.414C304.514,379.007,301.058,382.462,296.795,382.462z"/>
</g>
<path style="fill:#2A3944;" d="M366.695,463.692V512h-221.39v-48.308c0-37.111,30.082-67.183,67.193-67.183h87.004
	C336.613,396.509,366.695,426.581,366.695,463.692z"/>
<path style="fill:#3B4C5B;" d="M366.695,463.692V512H192.646v-48.308c0-37.111,30.082-67.183,67.193-67.183h39.663
	C336.613,396.509,366.695,426.581,366.695,463.692z"/>
<path style="fill:#2A3944;" d="M350.702,379.786c0,9.53-7.729,17.259-17.259,17.259H178.557c-4.765,0-9.077-1.935-12.206-5.053
	c-3.118-3.129-5.053-7.441-5.053-12.206c0-9.54,7.729-17.269,17.259-17.269h154.886c4.765,0,9.077,1.935,12.206,5.053
	C348.767,370.698,350.702,375.01,350.702,379.786z"/>
<path style="fill:#3B4C5B;" d="M350.702,379.786c0,9.53-7.729,17.259-17.259,17.259H220.752c-4.765,0-9.077-1.935-12.206-5.053
	c-3.118-3.129-5.053-7.441-5.053-12.206c0-9.54,7.729-17.269,17.259-17.269h112.691c4.765,0,9.077,1.935,12.206,5.053
	C348.767,370.698,350.702,375.01,350.702,379.786z"/>
<path style="fill:#2A3944;" d="M350.702,191.287c0,9.54-7.729,17.269-17.259,17.269H178.557c-4.765,0-9.077-1.935-12.206-5.053
	c-3.118-3.129-5.053-7.441-5.053-12.216c0-9.53,7.729-17.259,17.259-17.259h154.886c4.765,0,9.077,1.935,12.206,5.053
	C348.767,182.21,350.702,186.522,350.702,191.287z"/>
<g>
	<path style="fill:#3B4C5B;" d="M357.165,174.026c0-41.678-45.293-75.465-101.164-75.465s-101.164,33.787-101.164,75.465H357.165z"
		/>
	<path style="fill:#3B4C5B;" d="M204.691,185.004c-0.764,1.949-1.198,4.064-1.198,6.283c0,4.775,1.935,9.087,5.053,12.216
		c3.129,3.118,7.441,5.053,12.206,5.053h112.691c9.53,0,17.259-7.729,17.259-17.269c0-2.22-0.434-4.334-1.199-6.283H204.691z"/>
</g>
<path style="fill:#2A3944;" d="M256.001,98.561c-30.298,0-54.853,33.787-54.853,75.467h-46.312
	C154.836,132.348,200.129,98.561,256.001,98.561z"/>
<g>
</g>
<g>
</g>
<g>
</g>
<g>
</g>
<g>
</g>
<g>
</g>
<g>
</g>
<g>
</g>
<g>
</g>
<g>
</g>
<g>
</g>
<g>
</g>
<g>
</g>
<g>
</g>
<g>
</g>
</svg>
