<svg id="Capa_1" enable-background="new 0 0 512 512" height="512" viewBox="0 0 512 512" width="512" xmlns="http://www.w3.org/2000/svg"><g><path d="m299.217 262.714c-6.983-4.89-16.685-3.001-21.293 4.288-4.316 6.827-2.183 15.897 4.433 20.53l94.453 66.137-17.207 24.575c-4.752 6.786-3.102 16.139 3.684 20.891l61.436 43.018c27.144 19.007 64.557 12.41 83.564-14.735 4.752-6.786 3.102-16.139-3.684-20.891z" fill="#ebe1dc"/><path d="m256 512h-200.001c-4.348 0-8.474-1.885-11.32-5.17-2.864-3.307-4.148-7.692-3.524-12.033 4.749-32.95 33.47-57.797 66.807-57.797h83.106z" fill="#fff5f5"/><path d="m473.5 293.5h-154.394v-75h154.394c4.007 0 7.773 1.561 10.606 4.393l22.5 22.5c2.833 2.834 4.394 6.6 4.394 10.607s-1.561 7.773-4.394 10.607l-22.5 22.5c-2.833 2.832-6.599 4.393-10.606 4.393z" fill="#dcd2cd"/><path d="m316 241c-3.839 0-7.678-1.465-10.606-4.394-5.858-5.857-5.858-15.355 0-21.213l50.952-50.953-2.475-17.324c-.667-4.674.904-9.39 4.243-12.728s8.056-4.906 12.728-4.243l29.698 4.243-4.242-29.699c-.667-4.674.904-9.39 4.243-12.728 3.338-3.339 8.057-4.904 12.728-4.243l29.698 4.243-4.243-29.698c-.667-4.674.904-9.389 4.243-12.728 3.338-3.339 8.056-4.906 12.728-4.243l17.324 2.475 12.375-12.374c5.857-5.857 15.355-5.857 21.213 0s5.858 15.355 0 21.213l-17.678 17.678c-3.339 3.339-8.055 4.906-12.728 4.243l-4.95-.707 4.243 29.698c.667 4.674-.904 9.389-4.243 12.728-3.337 3.339-8.054 4.908-12.728 4.243l-29.698-4.243 4.242 29.699c.667 4.674-.904 9.39-4.243 12.728-3.337 3.339-8.052 4.909-12.728 4.243l-29.698-4.243.707 4.95c.667 4.674-.904 9.39-4.243 12.728l-56.256 56.256c-2.928 2.928-6.767 4.393-10.606 4.393z" fill="#ebe1dc"/><path d="m61.669 289.363c-20.104 0-39.539-6.869-55.146-19.572-3.282-2.671-5.288-6.63-5.504-10.859-.217-4.236 1.378-8.386 4.376-11.384l187.224-187.223v134.35l-69.06 69.061c-15.412 15.411-35.881 24.477-57.635 25.525-1.419.068-2.841.102-4.255.102z" fill="#fff5f5"/><path d="m256 512c-41.355 0-75-33.645-75-75v-362c0-41.355 33.645-75 75-75s75 33.645 75 75v362c0 41.355-33.645 75-75 75z" fill="#ff7037"/><g><path d="m256 0v512c41.355 0 75-33.645 75-75v-362c0-41.355-33.645-75-75-75z" fill="#ff2828"/></g><path d="m256 392c-8.284 0-15-6.716-15-15v-242c0-8.284 6.716-15 15-15s15 6.716 15 15v242c0 8.284-6.716 15-15 15z" fill="#fff5f5"/><circle cx="256" cy="75" fill="#6c5d58" r="15"/><circle cx="256" cy="437" fill="#6c5d58" r="15"/><g><path d="m256 120v272c8.284 0 15-6.716 15-15v-242c0-8.284-6.716-15-15-15z" fill="#ebe1dc"/><g fill="#504541"><path d="m271 75c0-8.284-6.716-15-15-15v30c8.284 0 15-6.716 15-15z"/><path d="m271 437c0-8.284-6.716-15-15-15v30c8.284 0 15-6.716 15-15z"/></g></g></g></svg>