<svg id="Capa_1" enable-background="new 0 0 512 512" height="512" viewBox="0 0 512 512" width="512" xmlns="http://www.w3.org/2000/svg"><g><path d="m375.466 341.333v-17.067c0-9.426-7.641-17.067-17.067-17.067v-5.333h-204.799v5.333c-9.426 0-17.067 7.641-17.067 17.067v17.067c0 6.77 3.947 12.609 9.66 15.367.646.312 1.044.98 1.044 1.698v.004c0 .718-.397 1.386-1.044 1.698-5.714 2.758-9.66 8.597-9.66 15.367v17.067c0 6.77 3.947 12.609 9.66 15.367.646.312 1.044.98 1.044 1.698v.003c0 .718-.397 1.386-1.044 1.698-5.714 2.758-9.66 8.597-9.66 15.367v17.067c0 6.77 3.947 12.609 9.66 15.367.646.312 1.044.98 1.044 1.698v.003c0 .718-.397 1.386-1.044 1.698-5.714 2.758-9.66 8.597-9.66 15.367 0 18.851 15.282 34.133 34.133 34.133h170.667c18.852 0 34.133-15.282 34.133-34.133 0-6.77-3.946-12.609-9.66-15.367-.646-.312-1.044-.98-1.044-1.698v-.003c0-.718.397-1.386 1.044-1.698 5.714-2.758 9.66-8.597 9.66-15.367v-17.067c0-6.77-3.946-12.609-9.66-15.367-.646-.312-1.044-.98-1.044-1.698v-.003c0-.718.397-1.386 1.044-1.698 5.714-2.758 9.66-8.597 9.66-15.367v-17.067c0-6.77-3.946-12.609-9.66-15.367-.646-.312-1.044-.98-1.044-1.698v-.004c0-.718.397-1.386 1.044-1.698 5.714-2.758 9.66-8.597 9.66-15.367z" fill="#d8e2f3"/><g fill="#bacdea"><path d="m365.807 356.7c5.714-2.758 9.66-8.597 9.66-15.367v-17.067c0-9.426-7.641-17.067-17.067-17.067h-24.533c9.426 0 17.067 7.641 17.067 17.067v17.067c0 6.77-3.946 12.609-9.66 15.367-.646.312-1.044.98-1.044 1.698v.004c0 .718.397 1.386 1.044 1.698 5.714 2.758 9.66 8.597 9.66 15.367v17.067c0 6.77-3.946 12.609-9.66 15.367-.646.312-1.044.98-1.044 1.698v.004c0 .718.397 1.386 1.044 1.698 5.714 2.758 9.66 8.597 9.66 15.367v17.067c0 6.77-3.946 12.609-9.66 15.367-.646.312-1.044.98-1.044 1.698v.004c0 .718.397 1.386 1.044 1.698 5.714 2.758 9.66 8.597 9.66 15.367 0 18.851-15.282 34.133-34.133 34.133h24.533c18.852 0 34.133-15.282 34.133-34.133 0-6.77-3.946-12.609-9.66-15.367-.646-.312-1.044-.98-1.044-1.698v-.004c0-.718.397-1.386 1.044-1.698 5.714-2.758 9.66-8.597 9.66-15.367v-17.067c0-6.77-3.946-12.609-9.66-15.367-.646-.312-1.044-.98-1.044-1.698v-.004c0-.718.397-1.386 1.044-1.698 5.714-2.758 9.66-8.597 9.66-15.367v-17.067c0-6.77-3.946-12.609-9.66-15.367-.646-.312-1.044-.98-1.044-1.698v-.004c0-.717.397-1.386 1.044-1.698z"/><path d="m324.267 350.4h-185.119c1.705 2.706 4.146 4.901 7.045 6.301.646.312 1.044.98 1.044 1.698v.004c0 .718-.397 1.386-1.044 1.698-2.899 1.399-5.34 3.595-7.045 6.3h185.118c4.419 0 8-3.581 8-8 .001-4.42-3.581-8.001-7.999-8.001z"/><path d="m365.807 407.9c2.899-1.4 5.34-3.595 7.045-6.301h-185.119c-4.419 0-8 3.581-8 8s3.581 8 8 8h185.118c-1.704-2.705-4.145-4.901-7.044-6.3-.646-.312-1.044-.98-1.044-1.698v-.004c0-.716.397-1.385 1.044-1.697z"/><path d="m324.267 452.8h-185.119c1.705 2.706 4.146 4.901 7.045 6.301.646.312 1.044.98 1.044 1.698v.004c0 .718-.397 1.386-1.044 1.698-2.899 1.399-5.34 3.594-7.045 6.3h185.118c4.419 0 8-3.581 8-8 .001-4.42-3.581-8.001-7.999-8.001z"/></g><path d="m366.933 307.2h-221.866c-4.713 0-8.533-3.82-8.533-8.533v-102.4c0-4.713 3.821-8.533 8.533-8.533v-5.334h221.867v5.333c4.713 0 8.533 3.821 8.533 8.533v102.4c0 4.714-3.821 8.534-8.534 8.534z" fill="#62a4fb"/><path d="m366.933 187.733v-5.333h-24.533v5.333c4.713 0 8.533 3.82 8.533 8.533v102.4c0 4.713-3.82 8.533-8.533 8.533h24.533c4.713 0 8.533-3.82 8.533-8.533v-102.4c0-4.712-3.82-8.533-8.533-8.533z" fill="#5392f9"/><path d="m307.2 51.2h-102.4v-35.2c0-8.837 7.163-16 16-16h70.4c8.837 0 16 7.163 16 16z" fill="#edf6ff"/><path d="m221.867 45.008h68.267v46.518h-68.267z" fill="#bacdea"/><path d="m282.133 256h-52.267c-4.418 0-8-3.582-8-8v-18.133c0-4.418 3.582-8 8-8h52.267c4.418 0 8 3.582 8 8v18.133c0 4.418-3.581 8-8 8z" fill="#edf6ff"/><path d="m221.867 85.333c-47.128 0-85.333 38.205-85.333 85.333v8.533c0 4.713 3.821 8.533 8.533 8.533h221.867c4.713 0 8.533-3.82 8.533-8.533v-8.533c0-47.128-38.205-85.333-85.333-85.333z" fill="#d8e2f3"/><path d="m307.2 51.2h-102.4v-35.2c0-8.837 7.163-16 16-16h70.4c8.837 0 16 7.163 16 16z" fill="#edf6ff"/><path d="m290.133 0h-24.533c9.426 0 17.067 7.641 17.067 17.067v34.133h24.533v-34.133c0-9.426-7.641-17.067-17.067-17.067z" fill="#d8e2f3"/><g><path d="m307.2 59.2h-102.4c-4.419 0-8-3.581-8-8s3.581-8 8-8h102.4c4.419 0 8 3.581 8 8 0 4.418-3.581 8-8 8z" fill="#d8e2f3"/></g><path d="m290.133 85.333h-24.533c47.128 0 85.333 38.205 85.333 85.333v8.533c0 4.713-3.82 8.533-8.533 8.533h24.533c4.713 0 8.533-3.821 8.533-8.533v-8.533c0-47.128-38.204-85.333-85.333-85.333z" fill="#bacdea"/><path d="m281.6 221.867h-24.533c4.713 0 8.533 3.821 8.533 8.533v17.067c0 4.713-3.82 8.533-8.533 8.533h24.533c4.713 0 8.533-3.82 8.533-8.533v-17.067c0-4.713-3.82-8.533-8.533-8.533z" fill="#d8e2f3"/><path d="m170.667 265.066h-34.133v16h34.133c4.419 0 8-3.581 8-8 0-4.418-3.582-8-8-8z" fill="#5392f9"/><path d="m375.466 281.066v-16h-34.133c-4.419 0-8 3.581-8 8s3.581 8 8 8z" fill="#5392f9"/></g></svg>