<?xml version="1.0" encoding="utf-8"?>
<!-- Generator: Adobe Illustrator 25.0.0, SVG Export Plug-In . SVG Version: 6.00 Build 0)  -->
<svg version="1.1" id="Laag_1" xmlns="http://www.w3.org/2000/svg" xmlns:xlink="http://www.w3.org/1999/xlink" x="0px" y="0px"
	 viewBox="0 0 551 220" style="enable-background:new 0 0 551 220;" xml:space="preserve">
<style type="text/css">
	.st0{fill:none;stroke:url(#SVGID_1_);stroke-width:5;stroke-linecap:round;stroke-miterlimit:10;}
	.st1{display:none;fill:url(#SVGID_2_);}
	.st2{display:none;fill:url(#SVGID_3_);}
	.st3{display:none;fill:url(#SVGID_4_);}
	.st4{fill:url(#SVGID_5_);}
	.st5{fill:url(#SVGID_6_);}
	.st6{fill:url(#SVGID_7_);}
	.st7{fill:url(#SVGID_8_);}
	.st8{fill:url(#SVGID_9_);}
	.st9{fill:url(#SVGID_10_);}
	.st10{fill:url(#SVGID_11_);}
	.st11{fill:url(#SVGID_12_);}
	.st12{fill:url(#SVGID_13_);}
	.st13{fill:#303030;}
	.st14{fill:url(#SVGID_14_);}
	.st15{fill:url(#SVGID_15_);}
	.st16{fill:url(#SVGID_16_);}
	.st17{fill:#FFFFFF;}
	.st18{fill:#FCFBF9;}
	.st19{fill:#F9F7F4;}
	.st20{fill:#F6F3EE;}
	.st21{fill:#F3EFE9;}
	.st22{fill:#F0EBE3;}
	.st23{fill:#EEE6DE;}
	.st24{fill:#EBE2D8;}
	.st25{fill:#E8DED3;}
	.st26{fill:#E5DACD;}
	.st27{fill:#E2D6C8;}
	.st28{fill:#DFD2C2;}
	.st29{fill:#FABBAC;}
	.st30{fill:#C9C9C9;}
	.st31{fill:url(#SVGID_17_);}
	.st32{fill:url(#SVGID_18_);}
	.st33{fill:#474747;}
	.st34{fill:url(#SVGID_19_);}
	.st35{fill:url(#SVGID_20_);}
	.st36{fill:url(#SVGID_21_);}
	.st37{fill:url(#SVGID_22_);}
	.st38{fill:url(#SVGID_23_);}
</style>
<linearGradient id="SVGID_1_" gradientUnits="userSpaceOnUse" x1="40.1256" y1="44.5495" x2="162.5724" y2="44.5495">
	<stop  offset="0" style="stop-color:#FF5700"/>
	<stop  offset="1" style="stop-color:#D65400"/>
</linearGradient>
<path class="st0" d="M160.1,63.8c-4.3-3.6-62.4-32.6-71.1-35.1c-9.4-2.6-16.6-4.6-25.5-2.7C53,28.2,46,34.4,42.6,37.9"/>
<g>
	
		<radialGradient id="SVGID_2_" cx="128.4" cy="-44394.2695" r="107.2408" gradientTransform="matrix(1 0 0 -0.1642 0 -7074.9219)" gradientUnits="userSpaceOnUse">
		<stop  offset="0" style="stop-color:#757575"/>
		<stop  offset="0.2458" style="stop-color:#B2B2B2"/>
		<stop  offset="0.5388" style="stop-color:#D6D6D6"/>
		<stop  offset="0.8332" style="stop-color:#F4F4F4"/>
		<stop  offset="1" style="stop-color:#FFFFFF"/>
	</radialGradient>
	<path class="st1" d="M237.4,212.6c0,10.7-48.8,19.4-109,19.4s-109-8.7-109-19.4s48.8-19.4,109-19.4
		C188.6,193.2,237.4,201.9,237.4,212.6z"/>
	
		<radialGradient id="SVGID_3_" cx="-253.728" cy="-44338.1055" r="107.2551" gradientTransform="matrix(3.1055 0 0 -0.1642 1075.4523 -7074.9219)" gradientUnits="userSpaceOnUse">
		<stop  offset="0" style="stop-color:#8C8C8C"/>
		<stop  offset="0.3008" style="stop-color:#B2B2B2"/>
		<stop  offset="0.4514" style="stop-color:#BDBDBD"/>
		<stop  offset="0.7123" style="stop-color:#D9D9D9"/>
		<stop  offset="1" style="stop-color:#FFFFFF"/>
	</radialGradient>
	<path class="st2" d="M626,203.4c0,10.7-151.6,19.4-338.5,19.4S-51,214.1-51,203.4S100.6,184,287.5,184
		C474.4,183.9,626,192.6,626,203.4z"/>
	
		<radialGradient id="SVGID_4_" cx="446" cy="-44394.2695" r="107.2578" gradientTransform="matrix(1 0 0 -0.1642 0 -7074.9219)" gradientUnits="userSpaceOnUse">
		<stop  offset="0" style="stop-color:#757575"/>
		<stop  offset="0.2458" style="stop-color:#B2B2B2"/>
		<stop  offset="0.5388" style="stop-color:#D6D6D6"/>
		<stop  offset="0.8332" style="stop-color:#F4F4F4"/>
		<stop  offset="1" style="stop-color:#FFFFFF"/>
	</radialGradient>
	<path class="st3" d="M555,212.6c0,10.7-48.8,19.4-109,19.4s-109-8.7-109-19.4s48.8-19.4,109-19.4C506.2,193.2,555,201.9,555,212.6z
		"/>
	<g>
		
			<linearGradient id="SVGID_5_" gradientUnits="userSpaceOnUse" x1="276.4642" y1="219.9014" x2="276.4642" y2="45.4439" gradientTransform="matrix(1 0 0 -1 0 222)">
			<stop  offset="0" style="stop-color:#FF5700"/>
			<stop  offset="1" style="stop-color:#D65400"/>
		</linearGradient>
		<path class="st4" d="M6.9,149.9l-1.7-13.5c-0.5-4,1.3-7.2,4-7.2h4.9c0,0,5.9-45.2,30.7-48.5c18.4-2.6,112.6-13.7,120.5-22
			c30.9-32.7,49.3-54,66.7-54c13.1,0,56,0,76.4,0c6,0,10.9,4.9,10.9,10.9v49.7h201.2c2,0,3.9,1.6,4.2,3.6l9.7,64.4
			c0,0,11.7-4.6,13.3,11.5c1.6,16-14.5,13.8-14.5,13.8L493,171.3l-452.4,2.2h-7.3c-4,0-9.7-2.2-12.7-4.9l-7.4-6.7
			C10.2,159.3,7.4,153.9,6.9,149.9z"/>
		
			<linearGradient id="SVGID_6_" gradientUnits="userSpaceOnUse" x1="49.4083" y1="94.5864" x2="49.4083" y2="39.8011" gradientTransform="matrix(1 0 0 -1 0 222)">
			<stop  offset="0" style="stop-color:#5F5A5E"/>
			<stop  offset="0.2754" style="stop-color:#262529"/>
			<stop  offset="0.4762" style="stop-color:#29282C"/>
			<stop  offset="0.6286" style="stop-color:#333135"/>
			<stop  offset="0.7647" style="stop-color:#434144"/>
			<stop  offset="0.8093" style="stop-color:#4A484B"/>
		</linearGradient>
		<path class="st5" d="M53.9,151.3L47.6,127H14.4c-0.2,1.4-0.3,2.2-0.3,2.2s-2.2,0-4.9,0s-4.5,3.2-4,7.2l1.7,13.5
			c0.5,4,3.3,9.4,6.3,12.1l7.4,6.7c3,2.7,8.7,4.9,12.7,4.9h7.3l48.7-0.2l4.4-22L53.9,151.3L53.9,151.3z"/>
		
			<linearGradient id="SVGID_7_" gradientUnits="userSpaceOnUse" x1="514.3496" y1="89.7483" x2="514.3496" y2="43.2361" gradientTransform="matrix(1 0 0 -1 0 222)">
			<stop  offset="0" style="stop-color:#5F5A5E"/>
			<stop  offset="0.2754" style="stop-color:#262529"/>
			<stop  offset="0.4762" style="stop-color:#29282C"/>
			<stop  offset="0.6286" style="stop-color:#333135"/>
			<stop  offset="0.7647" style="stop-color:#434144"/>
			<stop  offset="0.8093" style="stop-color:#4A484B"/>
		</linearGradient>
		<path class="st6" d="M533.2,158.5c0,0,16,2.3,14.5-13.8c-1.6-16.1-13.3-11.5-13.3-11.5l-0.2-1.4c-5.4,3.8-12.8,8.6-17.2,10.5
			c-7.7,3.4-36.1,8.8-36.1,8.8s0.7,11.6,1.3,20.2l10.9-0.1L533.2,158.5z"/>
		
			<linearGradient id="SVGID_8_" gradientUnits="userSpaceOnUse" x1="281.75" y1="61.0888" x2="281.75" y2="46.6357" gradientTransform="matrix(1 0 0 -1 0 222)">
			<stop  offset="0" style="stop-color:#5F5A5E"/>
			<stop  offset="0.2754" style="stop-color:#262529"/>
			<stop  offset="0.4762" style="stop-color:#29282C"/>
			<stop  offset="0.6286" style="stop-color:#333135"/>
			<stop  offset="0.7647" style="stop-color:#434144"/>
			<stop  offset="0.8093" style="stop-color:#4A484B"/>
		</linearGradient>
		<polygon class="st7" points="128.6,173.1 434.9,171.6 434.9,160.8 128.6,160.8 		"/>
		<g>
			<path d="M148,119.6c-41.8,0-58.3,5.2-66.6,22.8l-4.3,21.2c-0.4,2.5-0.6,5.1-0.6,7.7c5.9,0,9.8,0,9.8,0H180
				C180,142.8,176.5,119.6,148,119.6z"/>
			
				<radialGradient id="SVGID_9_" cx="128.3" cy="50.7" r="44.3" gradientTransform="matrix(1 0 0 -1 0 222)" gradientUnits="userSpaceOnUse">
				<stop  offset="0.8558" style="stop-color:#303030"/>
				<stop  offset="0.8699" style="stop-color:#343435"/>
				<stop  offset="0.9483" style="stop-color:#494749"/>
				<stop  offset="1" style="stop-color:#504E51"/>
			</radialGradient>
			<path class="st8" d="M172.6,171.3c0,24.5-19.8,44.3-44.3,44.3S84,195.8,84,171.3s19.8-44.3,44.3-44.3
				C152.7,127,172.6,146.8,172.6,171.3z"/>
			
				<radialGradient id="SVGID_10_" cx="128.3" cy="50.7" r="28.8424" gradientTransform="matrix(1 0 0 -1 0 222)" gradientUnits="userSpaceOnUse">
				<stop  offset="0" style="stop-color:#FFFFFF"/>
				<stop  offset="5.995032e-02" style="stop-color:#F8F8F8"/>
				<stop  offset="0.1737" style="stop-color:#F0F0F0"/>
				<stop  offset="0.6285" style="stop-color:#F0F0F0"/>
				<stop  offset="0.7034" style="stop-color:#F0F0F0"/>
				<stop  offset="0.8459" style="stop-color:#EEEEEE"/>
				<stop  offset="0.8972" style="stop-color:#E7E7E7"/>
				<stop  offset="0.9338" style="stop-color:#DCDCDC"/>
				<stop  offset="0.9634" style="stop-color:#CBCBCB"/>
				<stop  offset="0.9884" style="stop-color:#B5B5B5"/>
				<stop  offset="1" style="stop-color:#A8A8A8"/>
			</radialGradient>
			<path class="st9" d="M128.3,200.2c-15.9,0-28.9-13-28.9-28.9s12.9-28.9,28.9-28.9c15.9,0,28.9,12.9,28.9,28.9
				C157.1,187.2,144.2,200.2,128.3,200.2z"/>
			<g>
				<path d="M116.4,147.8l8.3,14.4c1.9,3.2,4.9,3.2,6.8,0l8.3-14.4c0.2-0.2-5-3.4-11.7-3.4C121.4,144.4,116.2,147.6,116.4,147.8z"/>
				<path d="M102.1,176.2l16.2-3.8c3.6-0.8,4.5-3.7,2-6.5L109,153.8c-0.1-0.3-4.7,3.8-6.7,10.2C100.4,170.4,101.9,176.3,102.1,176.2
					z"/>
				<path d="M125.1,198.1l1.1-16.6c0.3-3.7-2.3-5.4-5.6-3.8l-14.9,7.3c-0.3,0,2.3,5.6,7.8,9.4C119,198.1,125.2,198.4,125.1,198.1z"
					/>
				<path d="M152.8,182.6l-15.5-5.9c-3.5-1.3-5.8,0.6-5.3,4.3l2.6,16.4c0,0.3,6-0.5,11.2-4.7C151,188.4,153.1,182.6,152.8,182.6z"/>
				<path d="M146,152.1l-10.2,13.1c-2.3,2.9-1.2,5.8,2.5,6.3l16.4,2.3c0.3,0.1,1.3-5.9-1.2-12.1S146.1,151.9,146,152.1z"/>
			</g>
		</g>
		<g>
			<path d="M469.9,119.6c-54.3,0-64.6,5.2-72.8,22.8l-6.8,21.2c-0.4,2.5-0.6,5.1-0.6,7.7c5.9,0,9.8,0,9.8,0H493
				C493,142.8,498.4,119.6,469.9,119.6z"/>
			
				<radialGradient id="SVGID_11_" cx="441.4" cy="50.7" r="44.3" gradientTransform="matrix(1 0 0 -1 0 222)" gradientUnits="userSpaceOnUse">
				<stop  offset="0.8558" style="stop-color:#303030"/>
				<stop  offset="0.8699" style="stop-color:#343435"/>
				<stop  offset="0.9483" style="stop-color:#494749"/>
				<stop  offset="1" style="stop-color:#504E51"/>
			</radialGradient>
			<path class="st10" d="M485.7,171.3c0,24.5-19.8,44.3-44.3,44.3s-44.3-19.8-44.3-44.3s19.8-44.3,44.3-44.3
				C465.8,127,485.7,146.8,485.7,171.3z"/>
			
				<radialGradient id="SVGID_12_" cx="441.4" cy="50.7" r="28.8373" gradientTransform="matrix(1 0 0 -1 0 222)" gradientUnits="userSpaceOnUse">
				<stop  offset="0" style="stop-color:#FFFFFF"/>
				<stop  offset="5.995032e-02" style="stop-color:#F8F8F8"/>
				<stop  offset="0.1737" style="stop-color:#F0F0F0"/>
				<stop  offset="0.6285" style="stop-color:#F0F0F0"/>
				<stop  offset="0.7034" style="stop-color:#F0F0F0"/>
				<stop  offset="0.8459" style="stop-color:#EEEEEE"/>
				<stop  offset="0.8972" style="stop-color:#E7E7E7"/>
				<stop  offset="0.9338" style="stop-color:#DCDCDC"/>
				<stop  offset="0.9634" style="stop-color:#CBCBCB"/>
				<stop  offset="0.9884" style="stop-color:#B5B5B5"/>
				<stop  offset="1" style="stop-color:#A8A8A8"/>
			</radialGradient>
			<path class="st11" d="M441.4,200.2c-15.9,0-28.9-13-28.9-28.9s12.9-28.9,28.9-28.9c15.9,0,28.9,12.9,28.9,28.9
				C470.2,187.2,457.3,200.2,441.4,200.2z"/>
			<g>
				<path d="M429.5,147.8l8.3,14.4c1.9,3.2,4.9,3.2,6.8,0l8.3-14.4c0.2-0.2-5-3.4-11.7-3.4S429.3,147.6,429.5,147.8z"/>
				<path d="M415.2,176.2l16.2-3.8c3.6-0.8,4.5-3.7,2-6.5l-11.3-12.1c-0.1-0.3-4.7,3.8-6.7,10.2C413.5,170.4,415,176.3,415.2,176.2z
					"/>
				<path d="M438.2,198.1l1.1-16.6c0.3-3.7-2.3-5.4-5.6-3.8l-14.9,7.3c-0.3,0,2.3,5.6,7.8,9.4C432.1,198.1,438.3,198.4,438.2,198.1z
					"/>
				<path d="M465.9,182.6l-15.5-5.9c-3.5-1.3-5.8,0.6-5.3,4.3l2.6,16.4c0,0.3,6-0.5,11.2-4.7C464.1,188.4,466.2,182.6,465.9,182.6z"
					/>
				<path d="M459.1,152.1l-10.2,13.1c-2.3,2.9-1.2,5.8,2.5,6.3l16.4,2.3c0.3,0.1,1.3-5.9-1.2-12.1
					C464.1,155.5,459.2,151.9,459.1,152.1z"/>
			</g>
		</g>
		
			<linearGradient id="SVGID_13_" gradientUnits="userSpaceOnUse" x1="190.3766" y1="214.2495" x2="190.3766" y2="159.6273" gradientTransform="matrix(1 0 0 -1 0 222)">
			<stop  offset="0" style="stop-color:#5F5A5E"/>
			<stop  offset="0.2754" style="stop-color:#262529"/>
			<stop  offset="0.4762" style="stop-color:#29282C"/>
			<stop  offset="0.6286" style="stop-color:#333135"/>
			<stop  offset="0.7647" style="stop-color:#434144"/>
			<stop  offset="0.8093" style="stop-color:#4A484B"/>
		</linearGradient>
		<path class="st12" d="M176.3,55.5c0,0,24.6-25.9,38.6-37.4c6.9-5.6,6.4-6.9,3.7-9.5c-14,7.5-30.1,25.6-53.3,50.1
			c-0.8,0.9-2.6,1.7-5,2.7C170.3,62.2,176.3,55.5,176.3,55.5z"/>
		<polygon class="st13" points="183.6,65.6 299.7,65.6 299.7,13.4 235.6,13.4 		"/>
		
			<linearGradient id="SVGID_14_" gradientUnits="userSpaceOnUse" x1="507.3364" y1="126.4102" x2="530.7326" y2="126.4102" gradientTransform="matrix(1 0 0 -1 0 222)">
			<stop  offset="0" style="stop-color:#DB2A24"/>
			<stop  offset="1" style="stop-color:#A10600"/>
		</linearGradient>
		<path class="st14" d="M527.4,87.1c-6.8-3-19.3-6.9-20-4s10.8,16.1,23.4,26L527.4,87.1z"/>
		
			<linearGradient id="SVGID_15_" gradientUnits="userSpaceOnUse" x1="522.5082" y1="125.6482" x2="529.6032" y2="125.6482" gradientTransform="matrix(1 0 0 -1 0 222)">
			<stop  offset="0" style="stop-color:#DB2A24"/>
			<stop  offset="1" style="stop-color:#A10600"/>
		</linearGradient>
		<path class="st15" d="M528.1,91.4c-2.2-0.6-4.1-0.3-5,1c-1.4,2,0.2,5.4,3.5,7.7c1,0.7,2.1,1.2,3.1,1.5L528.1,91.4z"/>
		<g>
			
				<linearGradient id="SVGID_16_" gradientUnits="userSpaceOnUse" x1="25.2" y1="123.4" x2="63.8704" y2="123.4" gradientTransform="matrix(1 0 0 -1 0 222)">
				<stop  offset="0" style="stop-color:#FFFFFF"/>
				<stop  offset="5.983770e-02" style="stop-color:#EAEAEA"/>
				<stop  offset="0.2445" style="stop-color:#B0B0B0"/>
				<stop  offset="0.4229" style="stop-color:#808080"/>
				<stop  offset="0.5908" style="stop-color:#5A5A5A"/>
				<stop  offset="0.7455" style="stop-color:#3F3F3F"/>
				<stop  offset="0.8825" style="stop-color:#2F2F2F"/>
				<stop  offset="0.9873" style="stop-color:#292929"/>
			</linearGradient>
			<path class="st16" d="M28.9,96.8c4.8-7.7,16.1-13.1,33.8-13.1c5.1,0-6.3,29-37.5,29.8C25.2,113.4,26.6,100.4,28.9,96.8z"/>
			<path class="st17" d="M27.3,111.5c0.6-4.9,1.9-11.7,3.1-13.8c4.7-7.6,16.2-12.1,31.6-12.3c0,1.2-0.8,4.4-3.8,8.8
				C55,99.1,45.5,110.3,27.3,111.5z"/>
			<g>
				<path class="st17" d="M47.9,99.9c1.1-0.2,3.1-2.4,1.4-3.8c-1.8-1.4-1.3-3.8-1.4-4.9c-0.1-1-2.3-1.2-3.8,0.6
					C42.6,93.7,40.2,101.6,47.9,99.9z"/>
				<path class="st18" d="M47.8,99.6c1-0.2,2.9-2.2,1.3-3.6c-1.6-1.3-1.2-3.6-1.3-4.5c-0.1-1-2.1-1.1-3.5,0.6
					C42.9,93.8,40.6,101.2,47.8,99.6z"/>
				<path class="st19" d="M47.7,99.3c0.9-0.2,2.7-2.1,1.2-3.3c-1.5-1.2-1.1-3.3-1.2-4.1c-0.1-0.9-2-1-3.2,0.5
					C43.2,94,41.1,100.7,47.7,99.3z"/>
				<path class="st20" d="M47.6,99c0.8-0.2,2.4-1.9,1.1-3c-1.4-1.1-1-3-1.1-3.8s-1.8-0.9-2.9,0.5C43.5,94.1,41.6,100.3,47.6,99z"/>
				<path class="st21" d="M47.5,98.7c0.8-0.2,2.2-1.7,1-2.7s-0.9-2.7-1-3.4c-0.1-0.7-1.6-0.8-2.7,0.4C43.8,94.2,42,99.8,47.5,98.7z"
					/>
				<path class="st22" d="M47.4,98.3c0.7-0.1,2-1.5,0.9-2.4s-0.8-2.4-0.9-3.1c-0.1-0.7-1.5-0.8-2.4,0.4C44,94.4,42.5,99.4,47.4,98.3
					z"/>
				<path class="st23" d="M47.3,98c0.6-0.1,1.7-1.3,0.8-2.1c-1-0.8-0.7-2.1-0.8-2.7s-1.3-0.7-2.1,0.4C44.3,94.5,43,99,47.3,98z"/>
				<path class="st24" d="M47.2,97.7c0.5-0.1,1.5-1.2,0.7-1.9c-0.9-0.7-0.6-1.9-0.7-2.4c-0.1-0.5-1.1-0.6-1.8,0.3
					C44.6,94.7,43.4,98.5,47.2,97.7z"/>
				<path class="st25" d="M47.1,97.4c0.4-0.1,1.3-1,0.6-1.6s-0.5-1.6-0.6-2c0-0.4-0.9-0.5-1.6,0.3C44.9,94.8,43.9,98.1,47.1,97.4z"
					/>
				<path class="st26" d="M47,97.1c0.4-0.1,1-0.8,0.5-1.3c-0.6-0.5-0.4-1.3-0.5-1.6c0-0.3-0.8-0.4-1.3,0.2
					C45.2,95,44.4,97.7,47,97.1z"/>
				<path class="st27" d="M46.9,96.8c0.3-0.1,0.8-0.6,0.4-1c-0.5-0.4-0.3-1-0.4-1.3c0-0.3-0.6-0.3-1,0.2
					C45.5,95.1,44.8,97.2,46.9,96.8z"/>
				<path class="st28" d="M46.7,96.4c0.2,0,0.6-0.5,0.3-0.7c-0.3-0.3-0.2-0.7-0.3-0.9c0-0.2-0.4-0.2-0.7,0.1
					C45.8,95.3,45.3,96.8,46.7,96.4z"/>
			</g>
			<g>
				<path class="st17" d="M33.9,103c1.5,3.4,5.1,5,8,3.7s3.9-5.1,2.4-8.5c-1.6-3.4-5.1-5-8-3.7C33.4,95.9,32.3,99.6,33.9,103z"/>
				<path class="st18" d="M34.2,102.9c1.5,3.2,4.8,4.8,7.5,3.5c2.7-1.2,3.7-4.8,2.2-8s-4.8-4.8-7.5-3.5
					C33.7,96.1,32.7,99.7,34.2,102.9z"/>
				<path class="st19" d="M34.5,102.8c1.4,3,4.5,4.5,7.1,3.3c2.5-1.2,3.5-4.5,2.1-7.5s-4.5-4.5-7.1-3.3
					C34,96.4,33.1,99.8,34.5,102.8z"/>
				<path class="st20" d="M34.7,102.6c1.3,2.8,4.2,4.2,6.6,3.1c2.4-1.1,3.3-4.2,2-7s-4.2-4.2-6.6-3.1
					C34.3,96.7,33.5,99.8,34.7,102.6z"/>
				<path class="st21" d="M35,102.5c1.2,2.6,4,3.9,6.2,2.9s3-4,1.8-6.6s-4-3.9-6.2-2.9C34.7,96.9,33.8,99.9,35,102.5z"/>
				<path class="st22" d="M35.3,102.3c1.1,2.4,3.7,3.6,5.7,2.7c2.1-0.9,2.8-3.7,1.7-6.1S39,95.3,37,96.2
					C35,97.2,34.2,99.9,35.3,102.3z"/>
				<path class="st23" d="M35.6,102.2c1,2.2,3.4,3.3,5.3,2.5c1.9-0.9,2.6-3.4,1.6-5.6s-3.4-3.3-5.3-2.5
					C35.3,97.5,34.6,100,35.6,102.2z"/>
				<path class="st24" d="M35.9,102.1c0.9,2,3.1,3,4.8,2.3c1.7-0.8,2.4-3.1,1.4-5.1c-0.9-2-3.1-3.1-4.8-2.3
					C35.6,97.7,35,100,35.9,102.1z"/>
				<path class="st25" d="M36.2,101.9c0.8,1.8,2.8,2.8,4.4,2c1.6-0.7,2.1-2.8,1.3-4.6c-0.8-1.8-2.8-2.8-4.4-2
					C35.9,98,35.4,100.1,36.2,101.9z"/>
				<path class="st26" d="M36.5,101.8c0.8,1.7,2.5,2.5,3.9,1.8c1.4-0.6,1.9-2.5,1.2-4.2c-0.8-1.7-2.5-2.5-3.9-1.8
					S35.7,100.2,36.5,101.8z"/>
				<path class="st27" d="M36.8,101.7c0.7,1.5,2.2,2.2,3.5,1.6c1.2-0.6,1.7-2.2,1-3.7s-2.2-2.2-3.5-1.6
					C36.6,98.6,36.1,100.2,36.8,101.7z"/>
				<path class="st28" d="M37.1,101.5c0.6,1.3,1.9,1.9,3,1.4s1.5-1.9,0.9-3.2c-0.6-1.3-1.9-1.9-3-1.4S36.5,100.3,37.1,101.5z"/>
			</g>
			<path class="st29" d="M53.6,89.7c0-0.6,1.4-4.7,3.1-1.3c1.7,3.5-0.3,7.2-2.5,6.9C52.2,95,53.4,91.4,53.6,89.7z"/>
		</g>
		<g>
			<g>
				<path class="st30" d="M271.8,105.8c-6.7,0-12-3.2-12-7.3c0-4.1,5.3-7.3,12-7.3s12,3.2,12,7.3
					C283.9,102.6,278.6,105.8,271.8,105.8z M271.8,93.3c-5.4,0-9.9,2.4-9.9,5.1c0,2.8,4.5,5.1,9.9,5.1s9.9-2.4,9.9-5.1
					C281.7,95.7,277.2,93.3,271.8,93.3z"/>
			</g>
			<g>
				
					<linearGradient id="SVGID_17_" gradientUnits="userSpaceOnUse" x1="271.85" y1="130.9655" x2="271.85" y2="115.3424" gradientTransform="matrix(1 0 0 -1 0 222)">
					<stop  offset="0" style="stop-color:#A8A8A8"/>
					<stop  offset="0.1277" style="stop-color:#AAAAAA"/>
					<stop  offset="0.1757" style="stop-color:#B1B1B1"/>
					<stop  offset="0.2103" style="stop-color:#BDBDBD"/>
					<stop  offset="0.2384" style="stop-color:#CECECE"/>
					<stop  offset="0.2623" style="stop-color:#E4E4E4"/>
					<stop  offset="0.2669" style="stop-color:#E9E9E9"/>
					<stop  offset="0.5381" style="stop-color:#F2F2F2"/>
					<stop  offset="0.6992" style="stop-color:#DFDFDF"/>
					<stop  offset="0.754" style="stop-color:#C6C6C6"/>
					<stop  offset="0.8524" style="stop-color:#9E9E9E"/>
					<stop  offset="0.9308" style="stop-color:#868686"/>
					<stop  offset="0.9788" style="stop-color:#7D7D7D"/>
				</linearGradient>
				<path class="st31" d="M282.8,98.5c0,3.4-4.9,6.2-11,6.2s-10.9-2.8-10.9-6.2c0-3.4,4.9-6.2,10.9-6.2
					C277.9,92.3,282.8,95.1,282.8,98.5z"/>
				<g>
					
						<linearGradient id="SVGID_18_" gradientUnits="userSpaceOnUse" x1="292.7625" y1="97.276" x2="292.7625" y2="91.6428" gradientTransform="matrix(1 -3.500000e-03 -3.500000e-03 -1 -20.9221 193.2799)">
						<stop  offset="0" style="stop-color:#999999"/>
						<stop  offset="0.2585" style="stop-color:#EBEBEB"/>
						<stop  offset="0.6907" style="stop-color:#5C5C5C"/>
					</linearGradient>
					<path class="st32" d="M287.2,98.4c0,1.2-1,2.2-2.2,2.2l-27.3,0.1c-1.2,0-2.2-1-2.2-2.2l0,0c0-1.2,1-2.2,2.2-2.2l27.4-1.3
						C286.3,95,288.3,95.8,287.2,98.4L287.2,98.4z"/>
				</g>
			</g>
		</g>
		<g>
		</g>
		<g>
			<polygon class="st33" points="296,17.1 237.1,17.1 215.1,39.1 296,27.2 			"/>
			<polygon points="215.1,39.1 192.4,61.9 296,61.9 296,27.2 			"/>
		</g>
		<g>
			
				<linearGradient id="SVGID_19_" gradientUnits="userSpaceOnUse" x1="197" y1="167.7815" x2="197" y2="157.6815" gradientTransform="matrix(1 0 0 -1 0 222)">
				<stop  offset="0" style="stop-color:#5F5A5E"/>
				<stop  offset="0.2754" style="stop-color:#000000"/>
				<stop  offset="0.7541" style="stop-color:#000000"/>
				<stop  offset="0.8093" style="stop-color:#000000"/>
			</linearGradient>
			<polygon class="st34" points="197,54.2 191,60.7 194.8,64.3 203,61.6 			"/>
			
				<linearGradient id="SVGID_20_" gradientUnits="userSpaceOnUse" x1="65.7829" y1="946.197" x2="86.9603" y2="946.197" gradientTransform="matrix(1.1414 -0.1548 0.1108 0.8167 13.9592 -710.4665)">
				<stop  offset="0.2119" style="stop-color:#782800"/>
				<stop  offset="0.3983" style="stop-color:#CC4400"/>
				<stop  offset="0.5853" style="stop-color:#CE4500"/>
				<stop  offset="0.675" style="stop-color:#D64700"/>
				<stop  offset="0.7439" style="stop-color:#E34C00"/>
				<stop  offset="0.8019" style="stop-color:#F55200"/>
				<stop  offset="0.8256" style="stop-color:#FF5500"/>
				<stop  offset="0.9915" style="stop-color:#D14600"/>
			</linearGradient>
			<path class="st35" d="M219.3,58.2l-2.6-19c-0.5-3.4-4.6-5.2-9.1-3.6c-9.5,3.5-13.2,23.5-12.7,24.4c2.5,4.9,9,4.6,16.5,4.5
				C216.3,64.5,219.8,61.6,219.3,58.2z"/>
			
				<radialGradient id="SVGID_21_" cx="92.6593" cy="2839.7412" r="12.6074" gradientTransform="matrix(1.1414 -0.1548 0.1508 1.1116 -323.5571 -3092.4036)" gradientUnits="userSpaceOnUse">
				<stop  offset="0" style="stop-color:#FFFFFF"/>
				<stop  offset="0.2287" style="stop-color:#FBFBFB"/>
				<stop  offset="0.4522" style="stop-color:#EFEFEF"/>
				<stop  offset="0.6738" style="stop-color:#DCDCDC"/>
				<stop  offset="0.8927" style="stop-color:#C0C0C0"/>
				<stop  offset="1" style="stop-color:#B0B0B0"/>
			</radialGradient>
			<path class="st36" d="M219.3,58.2l-2.6-19c-0.5-3.4-4.6-5.2-9.1-3.6c-9.5,3.5-13.2,23.5-12.7,24.4c2.5,4.9,9,4.6,16.5,4.5
				C216.3,64.5,219.8,61.6,219.3,58.2z"/>
			
				<linearGradient id="SVGID_22_" gradientUnits="userSpaceOnUse" x1="202.0673" y1="183.5484" x2="205.6218" y2="173.0379" gradientTransform="matrix(1 0 0 -1 0 222)">
				<stop  offset="0" style="stop-color:#707070"/>
				<stop  offset="0.339" style="stop-color:#949494"/>
				<stop  offset="0.3485" style="stop-color:#919191"/>
				<stop  offset="0.5089" style="stop-color:#5D5D5D"/>
				<stop  offset="0.6595" style="stop-color:#353535"/>
				<stop  offset="0.7961" style="stop-color:#181818"/>
				<stop  offset="0.9141" style="stop-color:#060606"/>
				<stop  offset="1" style="stop-color:#000000"/>
			</linearGradient>
			<path class="st37" d="M219.3,58.2l-2.6-19c-0.5-3.4-4.6-5.2-9.1-3.6c-9.5,3.5-13.2,23.5-12.7,24.4c2.5,4.9,9,4.6,16.5,4.5
				C216.3,64.5,219.8,61.6,219.3,58.2z"/>
		</g>
		
			<linearGradient id="SVGID_23_" gradientUnits="userSpaceOnUse" x1="276.3972" y1="139.3455" x2="276.3972" y2="79.5249" gradientTransform="matrix(1 0 0 -1 0 222)">
			<stop  offset="0" style="stop-color:#4D4D4D"/>
			<stop  offset="1" style="stop-color:#808080"/>
		</linearGradient>
		<path class="st38" d="M114.1,135.4H59.3c0,0-1.1-31,68.5-47.6c30.4-7.3,104.4-5.2,104.4-5.2l259.1-0.3c0,0,13.6,47.9-26.9,36.3
			c0,0-148.9,38.1-272.2,17.6C119.8,124.1,114.1,135.4,114.1,135.4z"/>
	</g>
</g>
</svg>
