<?xml version="1.0" encoding="utf-8"?>
<!-- Generator: Adobe Illustrator 25.0.0, SVG Export Plug-In . SVG Version: 6.00 Build 0)  -->
<svg version="1.1" id="Laag_1" xmlns="http://www.w3.org/2000/svg" xmlns:xlink="http://www.w3.org/1999/xlink" x="0px" y="0px"
	 viewBox="0 0 551 450" style="enable-background:new 0 0 551 450;" xml:space="preserve">
<style type="text/css">
	.st0{fill:url(#SVGID_1_);}
	.st1{fill:#424242;}
	.st2{fill:url(#SVGID_2_);}
	.st3{fill:url(#SVGID_3_);}
	.st4{fill:url(#SVGID_4_);}
	.st5{fill:url(#SVGID_5_);}
	.st6{fill:url(#SVGID_6_);}
	.st7{fill:url(#SVGID_7_);}
	.st8{fill:#303030;}
	.st9{fill:#474747;}
	.st10{fill:url(#SVGID_8_);}
	.st11{fill:#FFFFFF;}
	.st12{fill:url(#SVGID_9_);}
	.st13{fill:#FAD2AC;}
	.st14{fill:url(#SVGID_10_);}
	.st15{fill:url(#SVGID_11_);}
	.st16{fill:url(#SVGID_12_);}
	.st17{fill:#FCFBF9;}
	.st18{fill:#F9F7F4;}
	.st19{fill:#F6F3EE;}
	.st20{fill:#F3EFE9;}
	.st21{fill:#F0EBE3;}
	.st22{fill:#EEE6DE;}
	.st23{fill:#EBE2D8;}
	.st24{fill:#E8DED3;}
	.st25{fill:#E5DACD;}
	.st26{fill:#E2D6C8;}
	.st27{fill:#DFD2C2;}
	.st28{fill:url(#SVGID_13_);}
	.st29{fill:url(#SVGID_14_);}
	.st30{fill:url(#SVGID_15_);}
	.st31{fill:url(#SVGID_16_);}
</style>
<g>
	<g>
		<g>
			<linearGradient id="SVGID_1_" gradientUnits="userSpaceOnUse" x1="466.5461" y1="356.8045" x2="540.9874" y2="356.8045">
				<stop  offset="0" style="stop-color:#5F5A5E"/>
				<stop  offset="0.411" style="stop-color:#000000"/>
				<stop  offset="0.531" style="stop-color:#060506"/>
				<stop  offset="0.6864" style="stop-color:#161516"/>
				<stop  offset="0.8604" style="stop-color:#302E30"/>
				<stop  offset="1" style="stop-color:#4A484B"/>
			</linearGradient>
			<path class="st0" d="M487.98,268.75h31.6c11.84,0,21.41,9.57,21.41,21.4v66.65v66.65c0,11.82-9.57,21.4-21.41,21.4h-31.6
				c-11.83,0-21.43-9.57-21.43-21.4V356.8v-66.65C466.55,278.33,476.14,268.75,487.98,268.75z"/>
			<g>
				<polygon class="st1" points="503.77,438.07 540.99,416.09 540.99,407.91 503.77,429.88 				"/>
				<path class="st1" d="M503.77,292.99l30.74-18.15c-1.87-1.82-4.06-3.31-6.49-4.35l-24.25,14.32V292.99z"/>
				<polygon class="st1" points="503.77,417.34 540.99,395.37 540.99,387.19 503.77,409.16 				"/>
				<path class="st1" d="M519.58,444.85c9.85,0,18.05-6.67,20.55-15.71l-26.61,15.71H519.58z"/>
				<polygon class="st1" points="503.77,396.62 540.99,374.65 540.99,366.46 503.77,388.43 				"/>
				<polygon class="st1" points="503.77,334.44 540.99,312.47 540.99,304.29 503.77,326.26 				"/>
				<path class="st1" d="M540.02,284.13l-36.25,21.41v8.18l37.22-21.97v-1.6C540.99,288.04,540.59,286.05,540.02,284.13z"/>
				<polygon class="st1" points="503.77,375.89 540.99,353.92 540.99,345.74 503.77,367.71 				"/>
				<polygon class="st1" points="503.77,355.17 540.99,333.2 540.99,325.01 503.77,346.99 				"/>
				<polygon class="st1" points="503.84,336.11 466.55,314.97 466.55,323.24 503.84,344.37 				"/>
				<polygon class="st1" points="503.84,315.38 466.55,294.25 466.55,302.51 503.84,323.65 				"/>
				<path class="st1" d="M503.84,273.93l-9.14-5.18h-6.72c-2.14,0-4.17,0.41-6.11,0.99l21.97,12.45V273.93z"/>
				<path class="st1" d="M503.84,294.66l-32.17-18.24c-1.55,1.83-2.81,3.9-3.68,6.18l35.85,20.32V294.66z"/>
				<polygon class="st1" points="503.84,398.28 466.55,377.15 466.55,385.41 503.84,406.54 				"/>
				<path class="st1" d="M466.55,423.46c0,1.23,0.16,2.43,0.36,3.61l31.38,17.79h5.55v-5.12l-37.29-21.13V423.46z"/>
				<polygon class="st1" points="503.84,419.01 466.55,397.87 466.55,406.13 503.84,427.27 				"/>
				<polygon class="st1" points="503.84,356.83 466.55,335.7 466.55,343.96 503.84,365.09 				"/>
				<polygon class="st1" points="503.84,377.56 466.55,356.42 466.55,356.8 466.55,364.69 503.84,385.82 				"/>
			</g>
		</g>
		<g>
			<linearGradient id="SVGID_2_" gradientUnits="userSpaceOnUse" x1="10.9928" y1="356.1943" x2="85.4335" y2="356.1943">
				<stop  offset="0" style="stop-color:#5F5A5E"/>
				<stop  offset="0.411" style="stop-color:#000000"/>
				<stop  offset="0.531" style="stop-color:#060506"/>
				<stop  offset="0.6864" style="stop-color:#161516"/>
				<stop  offset="0.8604" style="stop-color:#302E30"/>
				<stop  offset="1" style="stop-color:#4A484B"/>
			</linearGradient>
			<path class="st2" d="M32.42,268.14h31.6c11.84,0,21.41,9.57,21.41,21.4v66.65v66.65c0,11.82-9.57,21.4-21.41,21.4h-31.6
				c-11.83,0-21.43-9.57-21.43-21.4v-66.65v-66.65C10.99,277.72,20.59,268.14,32.42,268.14z"/>
			<g>
				<polygon class="st1" points="48.22,437.46 85.43,415.48 85.43,407.3 48.22,429.27 				"/>
				<path class="st1" d="M48.22,292.38l30.74-18.15c-1.87-1.82-4.06-3.31-6.49-4.35L48.22,284.2V292.38z"/>
				<polygon class="st1" points="48.22,416.73 85.43,394.76 85.43,386.58 48.22,408.55 				"/>
				<path class="st1" d="M64.02,444.24c9.85,0,18.05-6.67,20.55-15.71l-26.61,15.71H64.02z"/>
				<polygon class="st1" points="48.22,396.01 85.43,374.03 85.43,365.85 48.22,387.82 				"/>
				<polygon class="st1" points="48.22,333.83 85.43,311.86 85.43,303.68 48.22,325.65 				"/>
				<path class="st1" d="M84.47,283.52l-36.25,21.41v8.18l37.22-21.97v-1.6C85.43,287.43,85.04,285.44,84.47,283.52z"/>
				<polygon class="st1" points="48.22,375.28 85.43,353.31 85.43,345.13 48.22,367.1 				"/>
				<polygon class="st1" points="48.22,354.56 85.43,332.59 85.43,324.4 48.22,346.38 				"/>
				<polygon class="st1" points="48.28,335.5 10.99,314.36 10.99,322.63 48.28,343.76 				"/>
				<polygon class="st1" points="48.28,314.77 10.99,293.64 10.99,301.9 48.28,323.03 				"/>
				<path class="st1" d="M48.28,273.32l-9.14-5.18h-6.72c-2.14,0-4.17,0.41-6.11,0.99l21.97,12.45V273.32z"/>
				<path class="st1" d="M48.28,294.05l-32.17-18.24c-1.55,1.83-2.81,3.9-3.68,6.18l35.85,20.32V294.05z"/>
				<polygon class="st1" points="48.28,397.67 10.99,376.54 10.99,384.8 48.28,405.93 				"/>
				<path class="st1" d="M10.99,422.85c0,1.23,0.16,2.43,0.36,3.61l31.38,17.79h5.55v-5.12l-37.29-21.13V422.85z"/>
				<polygon class="st1" points="48.28,418.4 10.99,397.26 10.99,405.52 48.28,426.66 				"/>
				<polygon class="st1" points="48.28,356.22 10.99,335.09 10.99,343.35 48.28,364.48 				"/>
				<polygon class="st1" points="48.28,376.95 10.99,355.81 10.99,356.19 10.99,364.07 48.28,385.21 				"/>
			</g>
		</g>
		<g>
			
				<linearGradient id="SVGID_3_" gradientUnits="userSpaceOnUse" x1="79.1263" y1="96.2972" x2="79.1263" y2="134.3279" gradientTransform="matrix(-1 0 0 1 578.1797 0)">
				<stop  offset="0" style="stop-color:#FF5700"/>
				<stop  offset="1" style="stop-color:#D65400"/>
			</linearGradient>
			<path class="st3" d="M478.97,113.93c0,0-3.88-23.51,22.01-17.63c25.9,5.87,34.39,5.29,33.66,30.56
				c-0.32,11.15-60.01,5.88-60.01,5.88l-11.21-18.18L478.97,113.93z"/>
			<path d="M503.25,130.56c-11.3,0-22.46-0.77-26.61-1.09l-7.22-11.7l13.54-0.56l-0.61-3.82c-0.01-0.07-1.09-7.22,2.48-11.4
				c1.83-2.15,4.63-3.19,8.57-3.19c2.01,0,4.31,0.29,6.81,0.86l6.42,1.42c20.81,4.53,25.14,5.48,24.56,25.69l0,0
				C531.14,126.76,528.28,130.56,503.25,130.56z"/>
		</g>
		<g>
			
				<linearGradient id="SVGID_4_" gradientUnits="userSpaceOnUse" x1="-158.9626" y1="96.2972" x2="-158.9626" y2="134.3279" gradientTransform="matrix(1 0 0 1 213.3379 0)">
				<stop  offset="0" style="stop-color:#FF5700"/>
				<stop  offset="1" style="stop-color:#D65400"/>
			</linearGradient>
			<path class="st4" d="M74.46,113.93c0,0,3.88-23.51-22.01-17.63c-25.9,5.87-34.39,5.29-33.66,30.56
				c0.32,11.15,60.01,5.88,60.01,5.88l11.21-18.18L74.46,113.93z"/>
			<path d="M50.17,130.56c11.3,0,22.46-0.77,26.61-1.09l7.22-11.7l-13.54-0.56l0.61-3.82c0.01-0.07,1.09-7.22-2.48-11.4
				c-1.83-2.15-4.63-3.19-8.57-3.19c-2.01,0-4.31,0.29-6.81,0.86l-6.42,1.42c-20.81,4.53-25.14,5.48-24.56,25.69l0,0
				C22.29,126.76,25.14,130.56,50.17,130.56z"/>
		</g>
		<linearGradient id="SVGID_5_" gradientUnits="userSpaceOnUse" x1="276.1745" y1="2.4464" x2="276.1745" y2="307.4657">
			<stop  offset="0.5" style="stop-color:#FF5700"/>
			<stop  offset="0.5339" style="stop-color:#D65400"/>
		</linearGradient>
		<path class="st5" d="M494.1,112.88c-11.62-25.38-22.06-69.59-39.19-95.3c-4.21-6.31-14.53-10.86-22.11-10.86
			c-55.53,0-257.73,0-313.25,0c-7.59,0-17.89,4.54-22.1,10.85c-17.13,25.71-27.58,69.92-39.2,95.31
			c-3.11,6.78-49.93,49.99-49.93,49.99v128.25c0,7.58,6.15,13.7,13.74,13.66l254.12-1.41l254.12,1.41
			c7.59,0.04,13.74-6.08,13.74-13.66V162.87C544.03,162.87,497.21,119.67,494.1,112.88z"/>
		<linearGradient id="SVGID_6_" gradientUnits="userSpaceOnUse" x1="276.1745" y1="159.4509" x2="276.1745" y2="283.9149">
			<stop  offset="0" style="stop-color:#4A4A4A"/>
			<stop  offset="0.2272" style="stop-color:#383838"/>
			<stop  offset="1" style="stop-color:#000000"/>
		</linearGradient>
		<polygon class="st6" points="494.88,272.77 57.49,272.77 45.16,198.95 45.21,155.76 507.14,155.76 507.19,195.35 		"/>
		<linearGradient id="SVGID_7_" gradientUnits="userSpaceOnUse" x1="276.3318" y1="281.4181" x2="276.3318" y2="352.2893">
			<stop  offset="0" style="stop-color:#5F5A5E"/>
			<stop  offset="0.2754" style="stop-color:#262529"/>
			<stop  offset="0.4762" style="stop-color:#29282C"/>
			<stop  offset="0.6286" style="stop-color:#333135"/>
			<stop  offset="0.7647" style="stop-color:#434144"/>
			<stop  offset="0.8093" style="stop-color:#4A484B"/>
		</linearGradient>
		<path class="st7" d="M437.51,289.93L385,281.42H164.86l-52.52,8.51H7.97c0,10.1,0.45,38.91,0.45,38.91
			c0,12.57,19.96,22.75,44.57,22.75h447.12c24.61,0,44.58-10.18,44.58-22.75c0-12.54-0.17-29.18-0.17-38.91H437.51z"/>
		<g>
			<path class="st8" d="M112.38,120.33c-1.15,0-1.66-0.3-1.72-0.37c-0.03-0.09-0.08-0.66,0.39-1.7l20.17-72.8
				c4.32-7.32,17.51-14.49,26.98-14.49h236.25c9.46,0,22.64,7.17,27.12,14.76l20.04,72.54c0.48,1.04,0.42,1.62,0.38,1.71
				c-0.06,0.07-0.56,0.36-1.71,0.36H112.38z"/>
			<g>
				<path class="st9" d="M394.45,36.73H158.2c-7.92,0-18.67,6.23-22.07,11.35l-8.34,23.65l285.93-26.63
					C408.73,40.6,400.35,36.73,394.45,36.73z"/>
				<path d="M413.72,45.09L127.79,71.72l-9.64,42.84h316.34l-17.83-66.24C415.94,47.24,414.9,46.16,413.72,45.09z"/>
			</g>
		</g>
		<linearGradient id="SVGID_8_" gradientUnits="userSpaceOnUse" x1="194.087" y1="290.1102" x2="358.2613" y2="290.1102">
			<stop  offset="0" style="stop-color:#5F5A5E"/>
			<stop  offset="0.2754" style="stop-color:#262529"/>
			<stop  offset="0.4762" style="stop-color:#29282C"/>
			<stop  offset="0.6286" style="stop-color:#333135"/>
			<stop  offset="0.7647" style="stop-color:#434144"/>
			<stop  offset="0.8093" style="stop-color:#4A484B"/>
		</linearGradient>
		<rect x="194.09" y="272.77" class="st10" width="164.17" height="34.69"/>
		<rect x="197.52" y="276.2" class="st11" width="157.31" height="27.82"/>
		<g>
			<linearGradient id="SVGID_9_" gradientUnits="userSpaceOnUse" x1="484.0247" y1="303.9265" x2="484.0247" y2="321.7339">
				<stop  offset="0" style="stop-color:#DB2A24"/>
				<stop  offset="1" style="stop-color:#A10600"/>
			</linearGradient>
			<path class="st12" d="M497.91,317.81c0-7.67-6.22-13.88-13.88-13.88c-7.67,0-13.88,6.22-13.88,13.88c0,1.37,0.26,2.67,0.63,3.92
				h26.51C497.65,320.48,497.91,319.19,497.91,317.81z"/>
			<path class="st13" d="M470.77,321.73c1.7,5.74,6.96,9.96,13.25,9.96c6.29,0,11.55-4.22,13.25-9.96H470.77z"/>
		</g>
		<g>
			<linearGradient id="SVGID_10_" gradientUnits="userSpaceOnUse" x1="68.8339" y1="303.9265" x2="68.8339" y2="321.7339">
				<stop  offset="0" style="stop-color:#DB2A24"/>
				<stop  offset="1" style="stop-color:#A10600"/>
			</linearGradient>
			<path class="st14" d="M82.72,317.81c0-7.67-6.22-13.88-13.88-13.88c-7.67,0-13.88,6.22-13.88,13.88c0,1.37,0.26,2.67,0.63,3.92
				h26.51C82.46,320.48,82.72,319.19,82.72,317.81z"/>
			<path class="st13" d="M55.58,321.73c1.7,5.74,6.96,9.96,13.25,9.96c6.29,0,11.55-4.22,13.25-9.96H55.58z"/>
		</g>
		<g>
			<linearGradient id="SVGID_11_" gradientUnits="userSpaceOnUse" x1="494.0119" y1="179.515" x2="494.0119" y2="253.3471">
				<stop  offset="0" style="stop-color:#FFFFFF"/>
				<stop  offset="0.0598" style="stop-color:#EAEAEA"/>
				<stop  offset="0.2445" style="stop-color:#B0B0B0"/>
				<stop  offset="0.4229" style="stop-color:#808080"/>
				<stop  offset="0.5908" style="stop-color:#5A5A5A"/>
				<stop  offset="0.7455" style="stop-color:#3F3F3F"/>
				<stop  offset="0.8825" style="stop-color:#2F2F2F"/>
				<stop  offset="0.9873" style="stop-color:#292929"/>
			</linearGradient>
			<path class="st15" d="M510.77,180.55h-1.05c-8.37,0-18.14,6.09-21.83,13.61l-22.04,44.93c-3.69,7.52,0.11,13.61,8.48,13.61h24.11
				c8.37,0,16.3-6.69,17.71-14.94l7.22-42.27C524.78,187.24,519.14,180.55,510.77,180.55z"/>
			<linearGradient id="SVGID_12_" gradientUnits="userSpaceOnUse" x1="494.0143" y1="183.4135" x2="494.0143" y2="249.4899">
				<stop  offset="0" style="stop-color:#DB2A24"/>
				<stop  offset="1" style="stop-color:#A10600"/>
			</linearGradient>
			<path class="st16" d="M474.33,248.91c-2.65,0-4.68-0.8-5.54-2.19c-0.88-1.4-0.7-3.57,0.46-5.96l22.05-44.94
				c3.04-6.22,11.49-11.48,18.42-11.48h1.05c2.92,0,5.43,1.07,7.08,3.03c1.65,1.95,2.29,4.61,1.79,7.48l-7.22,42.27
				c-1.09,6.39-7.49,11.78-13.97,11.78H474.33z"/>
			<g>
				<path class="st11" d="M497.32,206.25c-0.42-1.87,1.19-6.79,4.37-5.14c3.19,1.66,6.15-1.03,7.64-1.67
					c1.49-0.63,3.23,2.7,1.72,6.45C509.55,209.64,500.28,219.69,497.32,206.25z"/>
				<path class="st17" d="M497.82,206.17c-0.38-1.73,1.11-6.29,4.05-4.76c2.95,1.53,5.69-0.96,7.08-1.55
					c1.38-0.59,2.99,2.5,1.6,5.98C509.16,209.3,500.57,218.61,497.82,206.17z"/>
				<path class="st18" d="M498.33,206.08c-0.35-1.6,1.02-5.79,3.73-4.38c2.72,1.41,5.24-0.88,6.51-1.43
					c1.27-0.54,2.76,2.31,1.47,5.5C508.76,208.97,500.86,217.53,498.33,206.08z"/>
				<path class="st19" d="M498.84,205.99c-0.32-1.46,0.93-5.29,3.41-4c2.49,1.29,4.79-0.8,5.95-1.3c1.16-0.5,2.52,2.11,1.34,5.03
					C508.36,208.63,501.15,216.46,498.84,205.99z"/>
				<path class="st20" d="M499.34,205.91c-0.29-1.32,0.84-4.79,3.08-3.62c2.25,1.17,4.34-0.73,5.39-1.18
					c1.05-0.45,2.28,1.91,1.22,4.55C507.97,208.3,501.43,215.38,499.34,205.91z"/>
				<path class="st21" d="M499.85,205.82c-0.26-1.18,0.75-4.29,2.76-3.24c2.02,1.05,3.88-0.65,4.83-1.06
					c0.94-0.4,2.04,1.71,1.09,4.08C507.57,207.96,501.72,214.31,499.85,205.82z"/>
				<path class="st22" d="M500.35,205.74c-0.23-1.04,0.66-3.79,2.44-2.87c1.78,0.92,3.43-0.58,4.26-0.93
					c0.83-0.36,1.8,1.51,0.96,3.6C507.18,207.62,502.01,213.23,500.35,205.74z"/>
				<path class="st23" d="M500.86,205.65c-0.2-0.91,0.57-3.29,2.12-2.49c1.55,0.8,2.98-0.5,3.7-0.81c0.72-0.31,1.56,1.31,0.84,3.13
					C506.78,207.29,502.3,212.15,500.86,205.65z"/>
				<path class="st24" d="M501.37,205.56c-0.17-0.77,0.49-2.79,1.79-2.11c1.32,0.68,2.52-0.42,3.14-0.69
					c0.61-0.26,1.33,1.11,0.71,2.65C506.39,206.95,502.58,211.08,501.37,205.56z"/>
				<path class="st25" d="M501.87,205.48c-0.14-0.63,0.4-2.29,1.47-1.73c1.08,0.56,2.07-0.35,2.57-0.57
					c0.5-0.22,1.09,0.92,0.58,2.18C505.99,206.62,502.86,210,501.87,205.48z"/>
				<path class="st26" d="M502.38,205.39c-0.11-0.49,0.31-1.79,1.15-1.35c0.85,0.44,1.62-0.27,2.01-0.44
					c0.39-0.17,0.85,0.72,0.46,1.7C505.6,206.28,503.15,208.93,502.38,205.39z"/>
				<path class="st27" d="M502.89,205.31c-0.07-0.36,0.22-1.29,0.82-0.97c0.62,0.32,1.17-0.19,1.45-0.32
					c0.28-0.11,0.61,0.52,0.33,1.23C505.2,205.94,503.45,207.85,502.89,205.31z"/>
			</g>
			<g>
				<path class="st11" d="M504.71,231.75c0,7.29-6.1,13.19-13.64,13.19c-7.54,0-13.64-5.9-13.64-13.19c0-7.3,6.1-13.21,13.64-13.21
					C498.61,218.54,504.71,224.45,504.71,231.75z"/>
				<path class="st17" d="M503.94,231.75c0,6.88-5.76,12.45-12.87,12.45c-7.11,0-12.87-5.57-12.87-12.45
					c0-6.89,5.76-12.46,12.87-12.46C498.18,219.28,503.94,224.86,503.94,231.75z"/>
				<path class="st18" d="M503.17,231.75c0,6.47-5.41,11.7-12.1,11.7c-6.69,0-12.1-5.24-12.1-11.7c0-6.47,5.41-11.72,12.1-11.72
					C497.75,220.03,503.17,225.27,503.17,231.75z"/>
				<path class="st19" d="M502.4,231.75c0,6.05-5.07,10.96-11.33,10.96c-6.26,0-11.33-4.9-11.33-10.96
					c0-6.06,5.07-10.97,11.33-10.97C497.33,220.78,502.4,225.68,502.4,231.75z"/>
				<path class="st20" d="M501.63,231.75c0,5.64-4.73,10.21-10.56,10.21c-5.84,0-10.56-4.57-10.56-10.21
					c0-5.65,4.72-10.23,10.56-10.23C496.9,221.52,501.63,226.09,501.63,231.75z"/>
				<path class="st21" d="M500.86,231.75c0,5.23-4.38,9.47-9.79,9.47c-5.41,0-9.79-4.24-9.79-9.47c0-5.24,4.38-9.48,9.79-9.48
					C496.48,222.27,500.86,226.51,500.86,231.75z"/>
				<path class="st22" d="M500.09,231.75c0,4.82-4.04,8.72-9.02,8.72c-4.99,0-9.02-3.9-9.02-8.72c0-4.83,4.03-8.74,9.02-8.74
					C496.05,223.01,500.09,226.92,500.09,231.75z"/>
				<path class="st23" d="M499.32,231.75c0,4.41-3.69,7.98-8.25,7.98c-4.56,0-8.25-3.57-8.25-7.98c0-4.42,3.68-7.99,8.25-7.99
					C495.63,223.76,499.32,227.33,499.32,231.75z"/>
				<path class="st24" d="M498.55,231.75c0,3.99-3.35,7.23-7.48,7.23c-4.14,0-7.48-3.24-7.48-7.23c0-4,3.34-7.24,7.48-7.24
					C495.2,224.5,498.55,227.74,498.55,231.75z"/>
				<path class="st25" d="M497.78,231.75c0,3.58-3,6.49-6.71,6.49c-3.71,0-6.71-2.91-6.71-6.49c0-3.59,2.99-6.5,6.71-6.5
					C494.78,225.25,497.78,228.15,497.78,231.75z"/>
				<path class="st26" d="M497.01,231.75c0,3.17-2.66,5.74-5.94,5.74c-3.29,0-5.94-2.57-5.94-5.74c0-3.18,2.65-5.75,5.94-5.75
					C494.35,225.99,497.01,228.56,497.01,231.75z"/>
				<path class="st27" d="M496.24,231.75c0,2.76-2.31,5-5.17,5c-2.86,0-5.16-2.24-5.16-5c0-2.77,2.3-5.01,5.16-5.01
					C493.92,226.74,496.24,228.98,496.24,231.75z"/>
			</g>
		</g>
		<g>
			
				<linearGradient id="SVGID_13_" gradientUnits="userSpaceOnUse" x1="726.9163" y1="179.515" x2="726.9163" y2="253.3471" gradientTransform="matrix(-1 0 0 1 791.5176 0)">
				<stop  offset="0" style="stop-color:#FFFFFF"/>
				<stop  offset="0.0598" style="stop-color:#EAEAEA"/>
				<stop  offset="0.2445" style="stop-color:#B0B0B0"/>
				<stop  offset="0.4229" style="stop-color:#808080"/>
				<stop  offset="0.5908" style="stop-color:#5A5A5A"/>
				<stop  offset="0.7455" style="stop-color:#3F3F3F"/>
				<stop  offset="0.8825" style="stop-color:#2F2F2F"/>
				<stop  offset="0.9873" style="stop-color:#292929"/>
			</linearGradient>
			<path class="st28" d="M47.85,180.55h1.05c8.37,0,18.14,6.09,21.83,13.61l22.04,44.93c3.69,7.52-0.11,13.61-8.48,13.61H60.18
				c-8.37,0-16.3-6.69-17.71-14.94l-7.22-42.27C33.83,187.24,39.48,180.55,47.85,180.55z"/>
			
				<linearGradient id="SVGID_14_" gradientUnits="userSpaceOnUse" x1="726.9186" y1="183.4135" x2="726.9186" y2="249.4899" gradientTransform="matrix(-1 0 0 1 791.5176 0)">
				<stop  offset="0" style="stop-color:#DB2A24"/>
				<stop  offset="1" style="stop-color:#A10600"/>
			</linearGradient>
			<path class="st29" d="M84.29,248.91c2.65,0,4.68-0.8,5.54-2.19c0.88-1.4,0.7-3.57-0.46-5.96l-22.05-44.94
				c-3.04-6.22-11.49-11.48-18.42-11.48h-1.05c-2.92,0-5.43,1.07-7.08,3.03c-1.65,1.95-2.29,4.61-1.79,7.48l7.22,42.27
				c1.09,6.39,7.49,11.78,13.97,11.78H84.29z"/>
			<g>
				<path class="st11" d="M61.3,206.25c0.42-1.87-1.19-6.79-4.37-5.14c-3.19,1.66-6.15-1.03-7.64-1.67
					c-1.49-0.63-3.23,2.7-1.72,6.45C49.06,209.64,58.33,219.69,61.3,206.25z"/>
				<path class="st17" d="M60.79,206.17c0.38-1.73-1.11-6.29-4.05-4.76c-2.95,1.53-5.69-0.96-7.08-1.55
					c-1.38-0.59-2.99,2.5-1.6,5.98C49.46,209.3,58.04,218.61,60.79,206.17z"/>
				<path class="st18" d="M60.28,206.08c0.35-1.6-1.02-5.79-3.73-4.38c-2.72,1.41-5.24-0.88-6.51-1.43
					c-1.27-0.54-2.76,2.31-1.47,5.5C49.85,208.97,57.75,217.53,60.28,206.08z"/>
				<path class="st19" d="M59.78,205.99c0.32-1.46-0.93-5.29-3.41-4c-2.49,1.29-4.79-0.8-5.95-1.3c-1.16-0.5-2.52,2.11-1.34,5.03
					C50.25,208.63,57.47,216.46,59.78,205.99z"/>
				<path class="st20" d="M59.27,205.91c0.29-1.32-0.84-4.79-3.08-3.62c-2.25,1.17-4.34-0.73-5.39-1.18
					c-1.05-0.45-2.28,1.91-1.22,4.55C50.64,208.3,57.18,215.38,59.27,205.91z"/>
				<path class="st21" d="M58.76,205.82c0.26-1.18-0.75-4.29-2.76-3.24c-2.02,1.05-3.88-0.65-4.83-1.06
					c-0.94-0.4-2.04,1.71-1.09,4.08C51.04,207.96,56.89,214.31,58.76,205.82z"/>
				<path class="st22" d="M58.26,205.74c0.23-1.04-0.66-3.79-2.44-2.87c-1.78,0.92-3.43-0.58-4.26-0.93
					c-0.83-0.36-1.8,1.51-0.96,3.6C51.44,207.62,56.6,213.23,58.26,205.74z"/>
				<path class="st23" d="M57.75,205.65c0.2-0.91-0.57-3.29-2.12-2.49c-1.55,0.8-2.98-0.5-3.7-0.81c-0.72-0.31-1.56,1.31-0.84,3.13
					C51.83,207.29,56.32,212.15,57.75,205.65z"/>
				<path class="st24" d="M57.25,205.56c0.17-0.77-0.49-2.79-1.79-2.11c-1.32,0.68-2.52-0.42-3.14-0.69
					c-0.61-0.26-1.33,1.11-0.71,2.65C52.23,206.95,56.03,211.08,57.25,205.56z"/>
				<path class="st25" d="M56.74,205.48c0.14-0.63-0.4-2.29-1.47-1.73c-1.08,0.56-2.07-0.35-2.57-0.57
					c-0.5-0.22-1.09,0.92-0.58,2.18C52.62,206.62,55.75,210,56.74,205.48z"/>
				<path class="st26" d="M56.23,205.39c0.11-0.49-0.31-1.79-1.15-1.35c-0.85,0.44-1.62-0.27-2.01-0.44
					c-0.39-0.17-0.85,0.72-0.46,1.7C53.01,206.28,55.47,208.93,56.23,205.39z"/>
				<path class="st27" d="M55.73,205.31c0.07-0.36-0.22-1.29-0.82-0.97c-0.62,0.32-1.17-0.19-1.45-0.32
					c-0.28-0.11-0.61,0.52-0.33,1.23C53.41,205.94,55.16,207.85,55.73,205.31z"/>
			</g>
			<g>
				<path class="st11" d="M53.9,231.75c0,7.29,6.1,13.19,13.64,13.19c7.54,0,13.64-5.9,13.64-13.19c0-7.3-6.1-13.21-13.64-13.21
					C60.01,218.54,53.9,224.45,53.9,231.75z"/>
				<path class="st17" d="M54.67,231.75c0,6.88,5.76,12.45,12.87,12.45c7.11,0,12.87-5.57,12.87-12.45
					c0-6.89-5.76-12.46-12.87-12.46C60.43,219.28,54.67,224.86,54.67,231.75z"/>
				<path class="st18" d="M55.44,231.75c0,6.47,5.41,11.7,12.1,11.7c6.69,0,12.1-5.24,12.1-11.7c0-6.47-5.41-11.72-12.1-11.72
					C60.86,220.03,55.44,225.27,55.44,231.75z"/>
				<path class="st19" d="M56.21,231.75c0,6.05,5.07,10.96,11.33,10.96c6.26,0,11.33-4.9,11.33-10.96c0-6.06-5.07-10.97-11.33-10.97
					C61.28,220.78,56.21,225.68,56.21,231.75z"/>
				<path class="st20" d="M56.98,231.75c0,5.64,4.73,10.21,10.56,10.21c5.84,0,10.56-4.57,10.56-10.21
					c0-5.65-4.72-10.23-10.56-10.23C61.71,221.52,56.98,226.09,56.98,231.75z"/>
				<path class="st21" d="M57.75,231.75c0,5.23,4.38,9.47,9.79,9.47c5.41,0,9.79-4.24,9.79-9.47c0-5.24-4.38-9.48-9.79-9.48
					C62.14,222.27,57.75,226.51,57.75,231.75z"/>
				<path class="st22" d="M58.52,231.75c0,4.82,4.04,8.72,9.02,8.72c4.99,0,9.02-3.9,9.02-8.72c0-4.83-4.03-8.74-9.02-8.74
					C62.56,223.01,58.52,226.92,58.52,231.75z"/>
				<path class="st23" d="M59.29,231.75c0,4.41,3.69,7.98,8.25,7.98c4.56,0,8.25-3.57,8.25-7.98c0-4.42-3.68-7.99-8.25-7.99
					C62.99,223.76,59.29,227.33,59.29,231.75z"/>
				<path class="st24" d="M60.06,231.75c0,3.99,3.35,7.23,7.48,7.23c4.14,0,7.48-3.24,7.48-7.23c0-4-3.34-7.24-7.48-7.24
					C63.41,224.5,60.06,227.74,60.06,231.75z"/>
				<path class="st25" d="M60.83,231.75c0,3.58,3,6.49,6.71,6.49c3.71,0,6.71-2.91,6.71-6.49c0-3.59-2.99-6.5-6.71-6.5
					C63.84,225.25,60.83,228.15,60.83,231.75z"/>
				<path class="st26" d="M61.6,231.75c0,3.17,2.66,5.74,5.94,5.74c3.29,0,5.94-2.57,5.94-5.74c0-3.18-2.65-5.75-5.94-5.75
					C64.26,225.99,61.6,228.56,61.6,231.75z"/>
				<path class="st27" d="M62.37,231.75c0,2.76,2.31,5,5.17,5c2.86,0,5.16-2.24,5.16-5c0-2.77-2.3-5.01-5.16-5.01
					C64.69,226.74,62.37,228.98,62.37,231.75z"/>
			</g>
		</g>
		<linearGradient id="SVGID_15_" gradientUnits="userSpaceOnUse" x1="279.3066" y1="205.5638" x2="279.3066" y2="213.7678">
			<stop  offset="0" style="stop-color:#4A4A4A"/>
			<stop  offset="0.2272" style="stop-color:#383838"/>
			<stop  offset="1" style="stop-color:#000000"/>
		</linearGradient>
		<path class="st30" d="M299.31,209.18c0,2.13-8.96,3.86-20.01,3.86c-11.05,0-20.01-1.73-20.01-3.86s8.96-3.86,20.01-3.86
			C290.35,205.32,299.31,207.05,299.31,209.18z"/>
		<linearGradient id="SVGID_16_" gradientUnits="userSpaceOnUse" x1="277.0563" y1="128.8524" x2="277.0563" y2="158.4023">
			<stop  offset="0" style="stop-color:#737373"/>
			<stop  offset="0.493" style="stop-color:#383838"/>
			<stop  offset="1" style="stop-color:#000000"/>
		</linearGradient>
		<polygon class="st31" points="530.4,155.76 23.72,155.76 49.6,127.98 504.51,127.98 		"/>
	</g>
</g>
</svg>
