<?xml version="1.0" encoding="utf-8"?>
<!-- Generator: Adobe Illustrator 25.0.0, SVG Export Plug-In . SVG Version: 6.00 Build 0)  -->
<svg version="1.1" id="Laag_1" xmlns="http://www.w3.org/2000/svg" xmlns:xlink="http://www.w3.org/1999/xlink" x="0px" y="0px"
	 viewBox="0 0 358 428" style="enable-background:new 0 0 358 428;" xml:space="preserve">
<style type="text/css">
	.st0{fill:#D18D28;}
	.st1{fill:#0276B4;}
	.st2{fill:#EAEAE8;}
	.st3{fill:#EA9D2D;}
	.st4{fill:#F6BB92;}
	.st5{fill:#FDC9A6;}
	.st6{fill:#0BAFEA;}
	.st7{fill:#027E2A;}
	.st8{fill:#029532;}
	.st9{fill:#02A437;}
	.st10{fill:#683B0D;}
	.st11{fill:#E82F3E;}
	.st12{fill:#CBCBCB;}
</style>
<g id="flat">
	<path class="st0" d="M298.9,228c8.8,0,16,7.2,16,16v24l0,0h-32l0,0v-24C282.9,235.2,290.1,228,298.9,228z"/>
	<path class="st0" d="M50.9,433c-4.4,0-8-3.6-8-8v-72c0-4.4,3.6-8,8-8s8,3.6,8,8v72C58.9,429.4,55.3,433,50.9,433z"/>
	<path class="st1" d="M98.9,340l8,88h80v-72l-8-32v-24h-80V340z"/>
	<path class="st2" d="M178.9,300h-62.6V139.5h42c11.4,0,20.7,9.2,20.7,20.7V300z"/>
	<path class="st2" d="M178.9,268v32h-48v-64L178.9,268z"/>
	<path class="st3" d="M18.9,124h32v80h-32V124z"/>
	<path class="st4" d="M162.9,140l8-24l-19-2l-21-14l-16,32l0.2,7.4L162.9,140z"/>
	<path class="st1" d="M210.9,52h-32c-4.4,0-8-3.6-8-8s3.6-8,8-8h32c4.4,0,8,3.6,8,8S215.3,52,210.9,52z"/>
	<path class="st5" d="M186.9,116h-32l-24-16V76l16-24h40V116z"/>
	<path class="st6" d="M154.9,140c13.3,0,24,10.7,24,24v104l0,0h-22c-14.4,0-26-11.6-26-26l0,0v-78C130.9,150.7,141.7,140,154.9,140z
		"/>
	<path class="st7" d="M90.9,132c22.1,0,40,17.9,40,40v144c0,13.3-10.7,24-24,24h-56l0,0V172C50.9,149.9,68.8,132,90.9,132z"/>
	<path class="st8" d="M50.9,260h80l0,0v56c0,13.3-10.7,24-24,24h-56l0,0V260L50.9,260z"/>
	<path class="st9" d="M32.9,196h18l0,0v144l0,0c-26.5,0-48-21.5-48-48v-66C2.9,209.4,16.3,196,32.9,196L32.9,196z"/>
	<path class="st6" d="M146.9,4c22.1,0,40,17.9,40,40v8l0,0h-80l0,0v-8C106.9,21.9,124.8,4,146.9,4z"/>
	<path class="st10" d="M106.9,52v32l24,16V76l16-24H106.9z"/>
	<circle class="st0" cx="34.9" cy="124" r="16"/>
	<path class="st2" d="M330.9,372h-64l-4.4-10.9c-7.5-18.7-7.5-39.5,0-58.2l4.4-10.9h64l4.4,10.9c7.5,18.7,7.5,39.5,0,58.2L330.9,372
		z"/>
	<path class="st3" d="M330.9,404h-64c-5-10.1-5-21.9,0-32h64C336,382.1,336,393.9,330.9,404z"/>
	<path class="st11" d="M291,372c-9.3-9.3-10.7-23.9-3.4-34.8l3.4-5.2l0,7.9c0,4.4,3.6,8.1,8,8.1c0,0,0,0,0,0c5.1-5.1,8-12.1,8-19.3
		V316l10.9,21.8c3.3,6.5,3.8,14.1,1.5,21.1L315,372L291,372z"/>
	<path class="st12" d="M330.9,292c-4.4,0-8-3.6-8-8c0-3,1.7-5.8,4.4-7.2l11.6-5.8v-49.4c0-22.1-17.9-40-40-40s-40,17.9-40,40v49.4
		l11.6,5.8c4,1.9,5.6,6.7,3.7,10.7c-1.9,4-6.7,5.6-10.7,3.7c0,0-0.1,0-0.1-0.1l-16-8c-2.7-1.4-4.4-4.1-4.4-7.2v-54.3
		c0-30.9,25.1-56,56-56s56,25.1,56,56V276c0,3-1.7,5.8-4.4,7.2l-16,8C333.4,291.7,332.2,292,330.9,292z"/>
	<circle class="st10" cx="162.9" cy="68" r="8"/>
	<path class="st3" d="M82.9,409c-22.4,0-40-24.6-40-56s17.6-56,40-56s40,24.6,40,56S105.3,409,82.9,409z M82.9,313
		c-13,0-24,18.3-24,40s11,40,24,40s24-18.3,24-40S95.9,313,82.9,313z"/>
	<path class="st9" d="M82.9,228h16c17.7,0,32,14.3,32,32c0,8.8-7.2,16-16,16h-48c-8.8,0-16-7.2-16-16C50.9,242.3,65.2,228,82.9,228z
		"/>
	<path class="st5" d="M178.9,268l72-56h20.6c2,0,3.6-1.4,3.9-3.3l6.7-40c0.4-2.2-1.1-4.2-3.3-4.6c-0.2,0-0.4-0.1-0.7-0.1h-27.3
		l-16,16l-56,32V268z"/>
	<path class="st3" d="M298.9,260c17.7,0,32,14.3,32,32l0,0h-64l0,0C266.9,274.3,281.2,260,298.9,260z"/>
</g>
</svg>
